<?xml version="1.0" encoding="UTF-8"?>
<svg xmlns="http://www.w3.org/2000/svg" width="187.5mm" height="187.5mm" viewBox="0 0 187.5 187.5">
  <title>tag36h11 ID 104 (150 mm black square)</title>
  <rect width="187.5" height="187.5" fill="#fff"/>
  <g fill="#000" shape-rendering="crispEdges">
    <rect x="18.75" y="18.75" width="18.75" height="18.75"/>
    <rect x="37.5" y="18.75" width="18.75" height="18.75"/>
    <rect x="56.25" y="18.75" width="18.75" height="18.75"/>
    <rect x="75" y="18.75" width="18.75" height="18.75"/>
    <rect x="93.75" y="18.75" width="18.75" height="18.75"/>
    <rect x="112.5" y="18.75" width="18.75" height="18.75"/>
    <rect x="131.25" y="18.75" width="18.75" height="18.75"/>
    <rect x="150" y="18.75" width="18.75" height="18.75"/>
    <rect x="18.75" y="37.5" width="18.75" height="18.75"/>
    <rect x="37.5" y="37.5" width="18.75" height="18.75"/>
    <rect x="56.25" y="37.5" width="18.75" height="18.75"/>
    <rect x="112.5" y="37.5" width="18.75" height="18.75"/>
    <rect x="150" y="37.5" width="18.75" height="18.75"/>
    <rect x="18.75" y="56.25" width="18.75" height="18.75"/>
    <rect x="56.25" y="56.25" width="18.75" height="18.75"/>
    <rect x="75" y="56.25" width="18.75" height="18.75"/>
    <rect x="131.25" y="56.25" width="18.75" height="18.75"/>
    <rect x="150" y="56.25" width="18.75" height="18.75"/>
    <rect x="18.75" y="75" width="18.75" height="18.75"/>
    <rect x="56.25" y="75" width="18.75" height="18.75"/>
    <rect x="93.75" y="75" width="18.75" height="18.75"/>
    <rect x="112.5" y="75" width="18.75" height="18.75"/>
    <rect x="131.25" y="75" width="18.75" height="18.75"/>
    <rect x="150" y="75" width="18.75" height="18.75"/>
    <rect x="18.75" y="93.75" width="18.75" height="18.75"/>
    <rect x="37.5" y="93.75" width="18.75" height="18.75"/>
    <rect x="56.25" y="93.75" width="18.75" height="18.75"/>
    <rect x="112.5" y="93.75" width="18.75" height="18.75"/>
    <rect x="131.25" y="93.75" width="18.75" height="18.75"/>
    <rect x="150" y="93.75" width="18.75" height="18.75"/>
    <rect x="18.75" y="112.5" width="18.75" height="18.75"/>
    <rect x="37.5" y="112.5" width="18.75" height="18.75"/>
    <rect x="75" y="112.5" width="18.75" height="18.75"/>
    <rect x="112.5" y="112.5" width="18.75" height="18.75"/>
    <rect x="131.25" y="112.5" width="18.75" height="18.75"/>
    <rect x="150" y="112.5" width="18.75" height="18.75"/>
    <rect x="18.75" y="131.25" width="18.75" height="18.75"/>
    <rect x="75" y="131.25" width="18.75" height="18.75"/>
    <rect x="112.5" y="131.25" width="18.75" height="18.75"/>
    <rect x="150" y="131.25" width="18.75" height="18.75"/>
    <rect x="18.75" y="150" width="18.75" height="18.75"/>
    <rect x="37.5" y="150" width="18.75" height="18.75"/>
    <rect x="56.25" y="150" width="18.75" height="18.75"/>
    <rect x="75" y="150" width="18.75" height="18.75"/>
    <rect x="93.75" y="150" width="18.75" height="18.75"/>
    <rect x="112.5" y="150" width="18.75" height="18.75"/>
    <rect x="131.25" y="150" width="18.75" height="18.75"/>
    <rect x="150" y="150" width="18.75" height="18.75"/>
  </g>
</svg>
